<svg version="1.1" id="Layer_1" xmlns="http://www.w3.org/2000/svg" x="0" y="0" width="2999.8" height="2999.5" xml:space="preserve"><style>.st0{fill:#fff}</style><path d="M2999.8 2999.5H0V0h2999.8v2999.5zM704 287.1v84.1c0 51.3 0 102.6.1 154 0 3.9-1 8 1.8 11.8 2.6.2 5.2.5 7.8.5 64.7 0 129.3.1 194-.1 7.3 0 14.7-1 21.8-2.4 14.6-3 27.6-9.4 38.4-20.1 24.2-23.8 27.6-79.2-20.7-96.8-8.1-2.9-16.7-4.1-25.1-6.2-1.7-.4-3.3-.9-4.9-1.4 2.3-2.1 4.4-2.6 6.5-3.2 8.2-2.6 16.9-4.3 24.6-7.9 20.5-9.5 29.1-26.9 28.4-48.7-.9-28.4-16.8-48.9-43.7-58.4-11.7-4.1-23.9-5.8-36.3-5.8-60.3-.1-120.6 0-181 0-3.4 0-6.7.3-11.7.6zM1360 761c.1-.5.1-1 .2-1.5 6.3-.1 12.5-.3 18.8-.4 15.5-.4 30.5-3 44.4-10.1 14.7-7.4 25.2-18.6 29.7-34.6 7.2-25.6.6-60.8-36.3-76.4-11.8-5-24.2-7.5-37-7.5-66.3-.2-132.6-.1-198.9-.1-2.5 0-5.1.6-7.4.9-2 10.6-1.7 241.4.4 250 7.3 0 14.9.1 22.5.1 8 0 16 .2 24-.1 7.5-.3 15.2 1.4 23-1.6v-33.1c0-11-.2-22-.1-33 .1-10.9-.8-21.8.6-32.8 2-.5 3.2-1.2 4.4-1.2 14-.1 28-.4 42 .1 16.2.6 29.5 7.6 39.5 20.5 5.7 7.4 11.3 14.9 16.1 22.9 9.6 16 18.7 32.3 28 48.5 1.8 3.1 3.7 6.2 5.3 8.9 12.7 1.6 84.8 1.2 92.8-.5-.6-1.9-1-3.8-1.9-5.5-10.3-19-20.2-38.3-31.2-56.9-5.4-9.1-12.3-17.4-19.4-25.4-13.2-14.8-29.7-24.4-49.3-28.6-3.4-.7-6.8-1.7-10.2-2.6zm1105.4-35.6h-163.3c-4.2 0-8.5-.5-13.3-.8-1.3-11.3-1.4-21.7.1-33.1 4.5-.2 8.4-.5 12.3-.5 51.7 0 103.3 0 155-.1 4.2 0 8.4-.6 13.1-.9.4-20.2.7-39.3-.1-58.3-9.1-1.9-241.4-2.1-251.6-.2-.3 2.9-.9 6.1-.9 9.3-.1 76.7-.1 153.3 0 230 0 3.2.6 6.4 1 10.5h89.7c50 0 100 0 150-.1 3.9 0 8 1 11.8-1.8v-57.8c-4.5-.4-8.7-1.1-12.9-1.1-51.3-.1-102.7 0-154-.1-4.2 0-8.5-.3-13.7-.4-.9-12.7-1.1-24.4.1-37 5.3-.1 9.6-.3 13.8-.3 50 0 100 0 150-.1 4.2 0 8.4-.6 13.4-1.1.3-18.6.7-36.5-.5-56.1zm-454.6-437.2c-1.8 15.5-1.2 240.6.6 248.1 9.3 1.9 60.3 1.8 69.1-.4 1.6-16.3-.2-32.9 1-49.2 8.6-10 60.6-55.1 67.8-58.5 23.1 36.3 46.3 72.8 69.5 109.4h32.6c11 0 22 .2 33 0 10.4-.2 20.9 1 33-1.1-37.1-54.5-73.4-107.8-110.3-161.8 11.2-10 21.9-19.5 32.5-29 10.7-9.5 21.5-18.9 32.2-28.5 10.5-9.5 21.5-18.5 33.2-30-5.4-.3-8.6-.6-11.8-.6-27.3 0-54.6.2-82-.2-7.6-.1-13.1 2.1-18.5 7.4-28.1 27.5-56.5 54.7-84.8 82-7 6.7-13.9 13.5-20.9 20.1-1.2 1.1-3.1 1.6-6 2.9v-12.1-88c0-3.5-.4-7.1-.6-10.3-9.3-2.6-61.2-2.6-69.6-.2zm-107.1 593.2h12.3c34.6 0 69.3.2 103.9-.1 12.6-.1 25.3-.8 37.8-2.2 18.6-2.1 36.5-7.2 53.2-16 28.1-14.8 46.1-37.5 54.4-68.1 4.7-17.3 5.4-34.9 4.1-52.5-3.6-46.6-25.9-80.3-69.6-98.7-21.2-8.9-43.5-12.8-66.2-13.2-40.6-.6-81.3-.3-121.9-.2-2.5 0-5.1.6-7.3.9-2.2 8.6-3.1 142.2-1.7 239.2 0 3.1.6 6.3 1 10.9zm-294.3-42h161.8c7.9 13.9 15.7 27.8 23.4 41.4h82.5c-2.4-7.6-141.2-240.7-148.9-250h-76.7c-2.1 3.4-4.1 6.4-5.9 9.5l-75.9 126.9c-20.7 34.6-41.4 69.1-62 103.8-1.7 2.9-4.7 5.6-3.6 10h81.8c7.8-13.8 15.6-27.6 23.5-41.6zm-545.6 41.4h82.8c-.7-2.3-1-3.9-1.8-5.2-48.8-81.7-97.7-163.4-146.5-245H921c-2 3.1-4 6-5.9 9.1-12.7 21.1-25.3 42.3-38 63.4-33.2 55.5-66.3 110.9-99.5 166.4-2 3.3-4.7 6.4-4.9 11.2H855c8-14 15.9-27.8 23.7-41.5h161.5c7.9 13.9 15.7 27.7 23.6 41.6zM1663 536.2c-2.8-8-143.1-242.6-149.2-249.3h-76c-2.2 3.5-4.4 6.8-6.4 10.2-19.2 32-38.3 64-57.5 96L1294.4 526c-1.9 3.2-5.2 6.2-4.4 10.6 11.5 1.5 74.3 1.2 82.5-.5 7.7-13.4 15.6-27.2 23.2-40.5h161.5c7.9 14 15.7 27.8 23.2 41.1 14.5 1.6 75.2 1.1 82.6-.5zM1962.2 395c.2-3.9.8-6.8.5-9.6-3.3-30.5-17.2-54.9-41.7-73.3-13.2-9.9-27.9-17-43.6-21.8-31-9.5-62.8-11.7-94.9-7.5-21 2.7-41 8.8-59.5 19.3-29.1 16.7-48.8 40.8-57.9 73.3-4.3 15.2-5.7 30.8-4.6 46.5 3 39.9 20.1 72 53.5 94.9 12.2 8.3 25.5 14.4 39.7 18.6 36.3 10.7 72.9 10.6 109.7 2.5 22.1-4.9 42.5-13.5 60.3-27.7 23.1-18.3 36-42.4 39.1-71.7.3-2.5-.3-5.1-.5-7.4-9.2-2.3-61.2-2.3-70.6-.1-.8 2.9-1.8 6-2.7 9.2-3.6 12.8-11.1 22.7-22.4 29.6-5.4 3.3-11.2 6-17.2 7.9-19.1 6.2-38.8 6.4-58.3 3.5-8.1-1.2-16.2-4-23.7-7.4-18.1-8.3-29.4-22.8-33.5-42.2-1.8-8.4-2.4-17.2-2-25.8 1.5-30.2 19.3-52 48.4-60.2 5.4-1.5 11-2.7 16.6-3.3 20.1-2.2 39.9-.9 58.9 6.9 17.8 7.3 29.7 19.9 34.2 38.9.5 2.2 1.4 4.3 2.3 6.8 23.2.4 46.1.2 69.9.1zM611.4 782.9h13.4c32 0 64 .1 95.9-.1 8 0 16-.6 23.9-1.8 33.1-4.8 55.7-25.5 61.8-56.6 1.3-6.5 1.5-13.3 1.3-19.9-.7-29.2-14.5-50.6-40.1-64.4-12.8-6.9-26.9-9.9-41.4-9.9-59-.1-117.9-.1-176.9 0-2.9 0-5.8.5-9.3.9-.3 4-.7 7.3-.7 10.6v227.8c0 1.7-.1 3.4.1 5 .4 2.2 1.1 4.3 1.7 6.4h68.4c.4-4.2 1.2-8 1.2-11.9.1-24.3 0-48.6.1-72.9.1-3.9.4-7.8.6-13.2zm419-246.4c12.6 1.8 220.4 1.3 228-.5 2.2-9.2 2-49.2-.5-58.1-3.9-.2-8.2-.7-12.4-.7-44-.1-88 0-132-.1-4.2 0-8.7 1.1-13.4-3V461 300c0-4.2-.6-8.4-.9-12.2-9.5-2.1-60.3-2.1-69.3-.1-.4 2.2-1.1 4.8-1.2 7.3-1.9 44.4-.6 232.5 1.7 241.5zm111.7 2152.4c23.8 0 45.7.2 67.6-.2 3.8-.1 7.8-1.8 11.3-3.6 6.8-3.6 10-9.8 9.7-17.3-.2-7.7-4.1-13.2-11.4-16.1-2.3-.9-4.6-1.9-7.9-3.3 2.4-1.3 3.8-2.2 5.3-2.7 7.9-2.9 11.5-8.5 11.1-16.9-.4-8.7-4.7-14.5-12.6-17.4-3.4-1.2-7.1-1.9-10.7-1.9-18.3-.2-36.6-.2-54.9-.1-2.2 0-4.4.9-7.4 1.5-.1 25.9-.2 51.4-.1 78zm182.6-61.6c1-6.7 1.9-11.9-.7-17-1.9-.3-3.5-.8-5.1-.8-22-.1-43.9-.1-65.9 0-2.2 0-4.3 1-6.2 1.5-1.7 15.2-1.1 69.8.7 77.1 10.8 2 70 1.6 77.4-.6v-16.3c-19-1.8-37.6.4-56.5-1.3V2658c18.7-1.7 36.9.3 54.9-1.2 2.2-6 2.6-11-.3-16.3-18.1-1.7-36.4.8-55.3-1.5.3-4.1.5-7.2.8-11.2 19.1-.2 37.3-.4 56.2-.5zm461.4-16.2c0 25.9-.3 51.3.1 76.5 10.1 2.2 70.4 2.1 78.8 0 .2-2.8.5-5.7.4-8.6 0-2.3-.4-4.5-.8-7.6-3.8-.3-7.4-.8-11-.9-12-.1-24 0-35.9-.1-3.2 0-6.7.8-9.5-2.2-.7-3.4-1.5-7 1.8-10.8 17.4-.7 35.3.3 52.8-.6 2.9-6 2.8-11 0-17-8.7 0-17.6.1-26.5 0-9.2-.2-18.5.8-27.8-.8v-10.9c3.9-.3 7.2-.6 10.4-.7 12.3-.1 24.6 0 36.9-.1 2.9 0 5.8-.5 8.8-.8v-15.9c-9.8-1.9-68.4-1.8-78.5.5zm-129.5 77.8c2.3-8.6 1-17.2 1.2-25.7.2-9 .3-18 0-27-.3-8.5 1.3-17.2-1.2-25.4-9.3-2.1-10.8-2-19.7.4-.2 3-.5 6.2-.6 9.4-.1 8.3 0 16.7-.1 25 0 2.1-.7 4.2-1.3 7.6-3.6-2.8-6.3-4.7-8.8-6.8-12.2-10.3-24.6-20.4-36.4-31.2-7.1-6.5-14.5-6.7-23.2-4.5-2.3 8.9-1.1 17.6-1.3 26.2-.2 8.7-.3 17.3 0 26 .3 8.5-1.4 17.2 1.7 26.2 6.4.1 12.5 1.4 19.4-1 .2-3.5.6-6.7.6-9.9.1-8.3 0-16.7.1-25 0-2.1.7-4.2 1.4-8 18.4 15.1 34.9 29.9 52 43.9 5.4-.2 10.3-.2 16.2-.2zm-153.3-81.3c-13.1 0-20.4 1.2-28.2 4.7-16 7.1-24.2 19.8-24.2 37 0 16.7 7.6 29.6 23.4 36.4 17.6 7.5 35.8 7.6 53.4.1 15.6-6.6 23.5-19.1 23.7-36.1.2-17.4-7.9-29.9-23.7-37.2-8.3-3.9-17.2-5.2-24.4-4.9zm265.9 35.1c-.2-3.4 0-5.8-.6-7.9-2.4-8.8-7.6-15.7-15.6-19.8-19.2-10-39-10.6-58.5-1-10.1 4.9-16.2 13.5-19 24.5-5.5 21.3 4.8 41.6 25.5 49 16.3 5.8 32.8 5 48.6-2.1 9.2-4.1 15.8-11 18.8-20.9.7-2.4.5-5 .8-8.2h-20.4c-2.9 5.7-5.7 11.1-11.7 13.5-9.4 3.7-18.9 4.1-28.2.3-9.1-3.7-12.9-11.4-12.9-20.7 0-8.9 3.4-16.3 11.9-20.3 8.2-3.9 16.7-4 25.3-1.6 7.4 2 12 6.9 14.8 13.7.2.6.9 1 1.6 1.7 5.9-.2 12.1-.2 19.6-.2zm-316.8-32.2c-9.5-1.9-17.6-1.5-25.2-.5-10.7 11.4-19.1 23.8-30.5 35.1-10.4-12.4-20.2-24.1-29.7-35.3-8.5-.4-16-1.4-24.8 1 2.5 3.3 4.3 6 6.3 8.4 10.6 12.5 21 25 31.9 37.2 4.3 4.8 6.2 9.8 5.9 16.2-.3 5.2.3 10.4.5 15.9h20.4c.2-5.9.7-11.1.4-16.3-.3-6.1 1.6-10.8 5.7-15.4 11.1-12.5 21.8-25.2 32.6-37.9 2-2.4 3.8-5 6.5-8.4zm371.1-12.1c.7.6 1.3 1.2 2 1.8 9.2-4.5 18-9.8 26.7-15.2 3.8-2.4 3.4-5.8.9-10.2-9.4 6.2-18.3 11.9-27 18-1.4 1-1.7 3.7-2.6 5.6zm1176.3 401.1H0V0h2999.8v2999.5z"/><path class="st0" d="M704 287.1c5-.3 8.3-.6 11.5-.6 60.3 0 120.6-.1 181 0 12.4 0 24.6 1.7 36.3 5.8 27 9.4 42.9 30 43.7 58.4.7 21.7-7.9 39.1-28.4 48.7-7.8 3.6-16.4 5.4-24.6 7.9-2.1.7-4.3 1.1-6.5 3.2 1.6.5 3.3 1 4.9 1.4 8.4 2 17.1 3.2 25.1 6.2 48.3 17.6 44.9 72.9 20.7 96.8-10.8 10.7-23.8 17.1-38.4 20.1-7.1 1.5-14.5 2.4-21.8 2.4-64.7.2-129.3.1-194 .1-2.6 0-5.3-.3-7.8-.5-2.8-3.9-1.8-8-1.8-11.8-.1-51.3-.1-102.6-.1-154v-72c.2-3.7.2-7.3.2-12.1zm72.5 188.7c3.9.3 7.2.7 10.4.7h102.7c3.3 0 6.7-.1 9.9-.7 5.1-1 9.3-3.7 11.6-8.5 6-12.1-.8-25.8-14.1-28.4-3.2-.6-6.6-.9-9.9-.9-33.6-.1-67.2-.1-100.7 0-3.2 0-6.4.6-10.4 1-.6 12.5-.8 24.3.5 36.8zm-.4-94.3c4 .3 6.6.7 9.2.7h97.8c3 0 6-.1 8.9-.8 8.4-1.8 12.5-6.9 13-15.3.6-10.1-4.3-16.5-14.4-18.3-2.3-.4-4.6-.5-7-.5-33.3 0-66.5-.1-99.8 0-2.5 0-5 .7-7.8 1.1.1 11.1.1 21.5.1 33.1zM1360 761c3.4.9 6.8 1.9 10.2 2.6 19.6 4.1 36.1 13.8 49.3 28.6 7.1 7.9 14 16.3 19.4 25.4 11 18.6 20.9 37.9 31.2 56.9.9 1.7 1.2 3.6 1.9 5.5-7.9 1.7-80.1 2.1-92.8.5-1.6-2.7-3.5-5.8-5.3-8.9-9.3-16.2-18.4-32.5-28-48.5-4.8-8-10.4-15.5-16.1-22.9-9.9-12.8-23.3-19.9-39.5-20.5-14-.5-28-.1-42-.1-1.2 0-2.5.6-4.4 1.2-1.4 11-.4 21.9-.6 32.8-.1 11 0 22 .1 33v33.1c-7.9 2.9-15.5 1.3-23 1.6-8 .3-16 .1-24 .1-7.6 0-15.2-.1-22.5-.1-2.1-8.6-2.4-239.4-.4-250 2.3-.3 4.9-.9 7.4-.9 66.3 0 132.6-.1 198.9.1 12.7 0 25.2 2.5 37 7.5 36.9 15.6 43.6 50.8 36.3 76.4-4.5 16-15.1 27.2-29.7 34.6-14 7-29 9.6-44.4 10.1-6.3.2-12.5.3-18.8.4-.1.5-.2 1-.2 1.5zm-116.2-35.6c4.4.2 7.3.5 10.3.5H1361c2.3 0 4.7 0 7-.3 11-1.6 16.3-7.9 16.2-19.1-.1-11.1-5.6-17.5-16.5-19-2.3-.3-4.7-.3-7-.3h-107.9c-2.9 0-5.8.5-9.2.8-.9 12.7-.8 24.5.2 37.4zM2465.4 725.4c1.2 19.6.8 37.4.4 56.3-5 .4-9.2 1-13.4 1.1-50 .1-100 0-150 .1-4.3 0-8.5.2-13.8.3-1.2 12.6-1.1 24.3-.1 37 5.2.2 9.5.4 13.7.4 51.3 0 102.7 0 154 .1 4.2 0 8.3.7 12.9 1.1v57.8c-3.8 2.8-7.9 1.8-11.8 1.8-50 .1-100 .1-150 .1h-89.7c-.4-4.1-1-7.3-1-10.5-.1-76.7-.1-153.3 0-230 0-3.2.6-6.4.9-9.3 10.2-1.9 242.5-1.7 251.6.2.8 18.9.5 38.1.1 58.3-4.7.3-8.9.9-13.1.9-51.7.1-103.3 0-155 .1-3.9 0-7.8.3-12.3.5-1.4 11.3-1.4 21.8-.1 33.1 4.9.3 9.1.8 13.3.8 49.7.1 99.3 0 149 0 4.3-.2 8.6-.2 14.4-.2zM2010.8 288.2c8.5-2.4 60.3-2.4 69.8.1.2 3.2.6 6.8.6 10.3v100.1c2.8-1.4 4.7-1.8 6-2.9 7.1-6.6 14-13.4 20.9-20.1 28.3-27.3 56.7-54.4 84.8-82 5.4-5.3 11-7.5 18.5-7.4 27.3.4 54.6.1 82 .2 3.2 0 6.4.3 11.8.6-11.7 11.5-22.6 20.5-33.2 30-10.7 9.6-21.5 19-32.2 28.5-10.7 9.5-21.3 19-32.5 29 36.8 54 73.1 107.3 110.3 161.8-12 2.1-22.5.9-33 1.1-11 .2-22 0-33 0H2219c-23.3-36.6-46.4-73-69.5-109.4-7.3 3.4-59.3 48.5-67.8 58.5-1.3 16.3.6 32.9-1 49.2-8.8 2.2-59.7 2.3-69.1.4-2-7.4-2.6-232.5-.8-248zM1903.7 881.4c-.4-4.5-.9-7.8-1-11-1.4-97-.5-230.5 1.7-239.2 2.3-.3 4.8-.9 7.3-.9 40.6 0 81.3-.3 121.9.2 22.7.3 45.1 4.3 66.2 13.2 43.7 18.4 66 52.1 69.6 98.7 1.4 17.6.6 35.3-4.1 52.5-8.3 30.6-26.3 53.4-54.4 68.1-16.7 8.8-34.6 13.9-53.2 16-12.5 1.4-25.2 2.1-37.8 2.2-34.6.3-69.3.1-103.9.1-3.7.1-7.3.1-12.3.1zm72-189.6c-.5 1.7-1.3 3.3-1.3 4.8-.1 39-.1 77.9-.1 116.9 0 1.9.8 3.8 1.2 6 2.2.3 4.1.9 6 .9 18 0 36 .5 53.9-.4 9.5-.5 19.2-2.6 28.2-5.6 17.4-5.8 28-18.5 32.6-36.2 3.2-12.8 3.3-25.8 1.3-38.7-3.8-23.8-17.7-38.9-41.1-44.8-6.7-1.7-13.7-3.1-20.6-3.3-18.3-.5-36.6-.3-54.9-.4-1.7 0-3.4.5-5.2.8zM1609.4 839.4c-7.9 13.9-15.7 27.8-23.5 41.6h-81.8c-1.1-4.4 1.8-7.1 3.6-10 20.6-34.6 41.3-69.2 62-103.8l75.9-126.9c1.9-3.1 3.8-6.2 5.9-9.5h76.7c7.6 9.4 146.5 242.5 148.9 250h-82.5c-7.7-13.6-15.5-27.5-23.4-41.4h-161.8zm81.7-144.6c-7.7 9.6-11.7 19.1-16.8 27.9-5.2 8.9-10.2 17.9-15 27-4.8 8.9-10.5 17.4-14.3 27.1 9.8 1.8 81.3 1.8 89.8.1-.2-1.2-.1-2.7-.7-3.7-13.9-25.6-28-51.2-43-78.4zM1063.8 880.8c-7.9-13.9-15.7-27.7-23.5-41.5H878.8c-7.8 13.7-15.7 27.5-23.7 41.5h-82.3c.2-4.8 2.9-7.9 4.9-11.2 33.1-55.5 66.3-110.9 99.5-166.4 12.7-21.2 25.3-42.3 38-63.4 1.9-3.1 3.9-6.1 5.9-9.1h77.3c48.8 81.5 97.6 163.2 146.5 245 .8 1.3 1 3 1.8 5.2-27.8-.1-54.7-.1-82.9-.1zm-58.9-103c-1.2-3.1-1.6-5.1-2.5-6.7-13-23.6-25.9-47.1-39-70.6-.9-1.6-2.5-2.7-4.1-4.5-1.1 1.3-1.8 2-2.3 2.9-13.6 24.3-27.2 48.7-40.7 73.1-.8 1.5-.8 3.5-1.2 5.9 29.9-.1 59-.1 89.8-.1zM1663 536.2c-7.3 1.6-68 2-82.5.5-7.5-13.3-15.3-27.1-23.2-41.1h-161.5c-7.6 13.3-15.5 27.1-23.2 40.5-8.2 1.7-71 2-82.5.5-.7-4.4 2.5-7.3 4.4-10.6 26.4-44.3 53-88.6 79.5-132.9 19.2-32 38.3-64 57.5-96 2-3.4 4.2-6.7 6.4-10.2h76c6 6.7 146.3 241.3 149.1 249.3zm-231.5-103c2.6.5 4.4 1.1 6.3 1.1 26 .1 52 .1 77.9 0 1.8 0 3.5-.8 6.5-1.5-4.2-7.7-7.9-14.3-11.5-21l-11.1-20.1c-3.7-6.7-7.3-13.5-11.2-20.1-3.8-6.4-6.3-13.7-12.7-20-14.5 25.3-28 50.1-41.7 74.7-1 2-1.5 4.2-2.5 6.9zM1962.2 395c-23.8.1-46.7.3-69.9-.1-.9-2.6-1.8-4.6-2.3-6.8-4.5-19-16.4-31.7-34.2-38.9-19-7.7-38.8-9.1-58.9-6.9-5.6.6-11.2 1.8-16.6 3.3-29.1 8.2-46.9 30-48.4 60.2-.4 8.6.2 17.4 2 25.8 4.1 19.4 15.4 33.9 33.5 42.2 7.5 3.4 15.6 6.2 23.7 7.4 19.6 2.9 39.3 2.7 58.3-3.5 6-1.9 11.8-4.7 17.2-7.9 11.3-6.8 18.8-16.8 22.4-29.6.9-3.2 1.8-6.3 2.7-9.2 9.4-2.2 61.4-2.1 70.6.1.2 2.3.7 4.9.5 7.4-3.1 29.3-15.9 53.3-39.1 71.7-17.8 14.1-38.2 22.8-60.3 27.7-36.7 8.1-73.4 8.1-109.7-2.5-14.2-4.2-27.5-10.2-39.7-18.6-33.3-22.8-50.5-54.9-53.5-94.9-1.2-15.7.3-31.3 4.6-46.5 9.1-32.4 28.8-56.6 57.9-73.3 18.5-10.6 38.5-16.6 59.5-19.3 32.1-4.2 63.8-2 94.9 7.5 15.7 4.8 30.4 11.9 43.6 21.8 24.5 18.4 38.4 42.9 41.7 73.3.3 2.8-.3 5.7-.5 9.6zM611.4 782.9c-.2 5.4-.6 9.3-.6 13.2 0 24.3 0 48.6-.1 72.9 0 3.8-.8 7.7-1.2 11.9h-68.4c-.6-2.1-1.3-4.3-1.7-6.4-.3-1.6-.1-3.3-.1-5V641.7c0-3.3.4-6.5.7-10.6 3.5-.3 6.4-.9 9.3-.9 59 0 117.9-.1 176.9 0 14.5 0 28.5 3 41.4 9.9 25.6 13.7 39.4 35.1 40.1 64.4.2 6.6 0 13.4-1.3 19.9-6.1 31.2-28.7 51.8-61.8 56.6-7.9 1.1-15.9 1.7-23.9 1.8-32 .2-64 .1-95.9.1h-13.4zm-.7-57.7c3.5.3 5.8.7 8.1.7 32 0 63.9.1 95.9 0 3.3 0 6.6-.6 9.8-1.3 5.2-1.2 8.9-4.5 10.8-9.5 5.5-14.1-2.4-26.5-17.5-27.7-1.3-.1-2.7-.1-4-.1h-93.9c-2.9 0-5.7.5-9.7.9-.3 12.5-1 24.2.5 37zM1030.4 536.5c-2.4-9-3.6-197.1-1.7-241.3.1-2.6.8-5.1 1.2-7.3 9-2 59.8-2.1 69.3.1.3 3.8.9 8 .9 12.2.1 53.7 0 107.3 0 161v13.1c4.7 4.1 9.2 3 13.4 3 44 .1 88 0 132 .1 4.2 0 8.5.4 12.4.7 2.5 8.8 2.6 48.8.5 58.1-7.5 1.6-215.4 2.1-228 .3z"/><g><path class="st0" d="M1142.1 2688.9c-.2-26.7-.1-52.1 0-78 3-.6 5.2-1.5 7.4-1.5 18.3-.1 36.6-.1 54.9.1 3.6 0 7.3.7 10.7 1.9 7.9 2.9 12.3 8.7 12.6 17.4.4 8.4-3.2 14-11.1 16.9-1.5.5-2.9 1.5-5.3 2.7 3.3 1.4 5.6 2.4 7.9 3.3 7.3 2.9 11.2 8.4 11.4 16.1.2 7.5-3 13.7-9.7 17.3-3.4 1.8-7.5 3.6-11.3 3.6-21.8.4-43.7.2-67.5.2zm23.6-31.7c-2.2 4.3-2.2 8-.1 13.1 12.6.2 25.4.7 38.2-.3 2.9-.2 4.5-2.6 4.6-5.6.1-2.9-1.1-5.2-3.9-6.3-1.2-.5-2.6-.8-3.9-.8-11.6-.2-23.1-.1-34.9-.1zm-1.4-17.7c4.7.2 8.3.5 11.9.5 7.9 0 15.9 0 23.8-.3 3.2-.1 5.6-1.9 6-5.5.3-3.3-1.9-5.7-6.1-6.5-1.3-.2-2.6-.3-4-.3-8.3 0-16.5-.1-24.8.1-2.2 0-4.3.9-6.8 1.4v10.6zM1324.7 2627.3c-18.9.1-37.1.3-56.2.4-.3 4-.5 7.1-.8 11.2 18.9 2.3 37.2-.2 55.3 1.5 2.9 5.2 2.5 10.3.3 16.3-18 1.5-36.2-.5-54.9 1.2v11.9c18.9 1.8 37.5-.4 56.5 1.3v16.3c-7.4 2.2-66.6 2.6-77.4.6-1.8-7.3-2.4-61.8-.7-77.1 1.9-.5 4.1-1.5 6.2-1.5 22-.1 43.9-.1 65.9 0 1.6 0 3.2.5 5.1.8 2.6 5.2 1.7 10.4.7 17.1zM1786.1 2611.1c10.1-2.3 68.8-2.4 78.6-.3v15.9c-3.1.3-6 .7-8.8.8-12.3.1-24.6 0-36.9.1-3.3 0-6.5.4-10.4.7v10.9c9.4 1.6 18.6.6 27.8.8 8.9.2 17.9 0 26.5 0 2.8 6 2.9 11 0 17-17.5.9-35.4-.2-52.8.6-3.3 3.8-2.5 7.4-1.8 10.8 2.8 3 6.3 2.1 9.5 2.2 12 .1 24 0 35.9.1 3.6 0 7.1.5 11 .9.3 3 .7 5.3.8 7.6 0 2.9-.3 5.9-.4 8.6-8.4 2.2-68.7 2.3-78.8 0-.5-25.4-.3-50.9-.2-76.7zM1656.6 2688.9h-16.1c-17-14-33.5-28.9-52-43.9-.7 3.8-1.4 5.9-1.4 8-.1 8.3 0 16.7-.1 25 0 3.2-.4 6.5-.6 9.9-6.9 2.3-13 1.1-19.4 1-3.1-9-1.4-17.7-1.7-26.2-.3-8.6-.2-17.3 0-26 .2-8.6-1-17.2 1.3-26.2 8.7-2.1 16.1-2 23.2 4.5 11.8 10.8 24.2 20.9 36.4 31.2 2.5 2.1 5.1 4 8.8 6.8.6-3.4 1.3-5.5 1.3-7.6.1-8.3 0-16.7.1-25 0-3.2.4-6.5.6-9.4 8.9-2.4 10.4-2.4 19.7-.4 2.5 8.2 1 16.9 1.2 25.4.3 9 .2 18 0 27-.3 8.7 1 17.3-1.3 25.9zM1503.3 2607.6c7.3-.2 16.1 1 24.5 4.8 15.8 7.3 23.8 19.8 23.7 37.2-.1 17-8 29.5-23.7 36.1-17.6 7.5-35.8 7.4-53.4-.1-15.8-6.7-23.4-19.7-23.4-36.4 0-17.1 8.1-29.9 24.2-37 7.7-3.4 14.9-4.6 28.1-4.6zm-.6 65.1c3-.6 8-1 12.6-2.6 9.6-3.2 14.7-11.3 14.5-21.4-.2-10.2-5.8-17.9-15.3-20.9-8.8-2.8-17.6-2.9-26.4 0-7.4 2.4-12.6 7.2-14.5 15-3.6 14.9 4.1 26.6 19.2 29.1 2.6.3 5.3.4 9.9.8zM1769.2 2642.7h-19.8c-.7-.8-1.3-1.2-1.6-1.7-2.9-6.8-7.5-11.7-14.8-13.7-8.7-2.4-17.2-2.3-25.3 1.6-8.5 4-12 11.5-11.9 20.3 0 9.3 3.8 17 12.9 20.7 9.4 3.8 18.9 3.5 28.2-.3 6.1-2.4 8.8-7.8 11.7-13.5h20.4c-.3 3.2-.1 5.9-.8 8.2-3 9.8-9.5 16.7-18.8 20.9-15.9 7.1-32.3 7.9-48.6 2.1-20.7-7.4-31-27.6-25.5-49 2.8-10.9 8.9-19.5 19-24.5 19.5-9.6 39.3-9 58.5 1 8 4.2 13.2 11.1 15.6 19.8.8 2.3.6 4.7.8 8.1zM1452.4 2610.5c-2.6 3.4-4.5 6-6.5 8.4-10.8 12.7-21.5 25.5-32.6 37.9-4 4.5-6 9.3-5.7 15.4.3 5.2-.2 10.5-.4 16.3h-20.4c-.2-5.5-.8-10.7-.5-15.9.4-6.4-1.6-11.4-5.9-16.2-10.9-12.2-21.3-24.7-31.9-37.2-2.1-2.4-3.8-5.1-6.3-8.4 8.8-2.4 16.3-1.4 24.8-1 9.4 11.3 19.2 22.9 29.7 35.3 11.4-11.3 19.8-23.7 30.5-35.1 7.6-1 15.7-1.3 25.2.5zM1823.5 2598.4c.9-1.9 1.2-4.6 2.7-5.6 8.7-6.1 17.6-11.8 27-18 2.5 4.4 2.8 7.8-.9 10.2-8.7 5.4-17.5 10.7-26.7 15.2-.8-.6-1.4-1.2-2.1-1.8z"/></g></svg>